<svg width="62" height="50" viewBox="0 0 62 50" fill="none" xmlns="http://www.w3.org/2000/svg">
<path fill-rule="evenodd" clip-rule="evenodd" d="M5.28755 18.9897C7.05898 18.9897 8.56798 19.5079 9.53023 20.8136C9.88015 21.2903 10.077 22.14 9.50837 22.6167C8.7648 23.2592 7.71507 23.1141 7.1902 22.5545C6.53411 21.8084 5.92177 21.684 5.92177 21.684C5.65933 21.6011 5.35316 21.5804 5.00325 21.6011C4.3909 21.6426 3.95351 21.9535 3.97538 22.4716C3.99725 23.1555 4.87203 23.3214 6.00925 23.7151C7.67133 24.254 10.2301 24.7514 10.2738 27.2799C10.2957 29.7462 8.15246 31.0105 5.24381 31.0105C3.80043 31.0105 2.77256 30.7825 1.67909 30.2022C1.04487 29.8498 0.541875 29.4353 0.32318 29.0623C-0.485991 27.7151 0.498136 27.0726 0.498136 27.0726C1.70096 26.2436 2.8163 27.3421 2.8163 27.3421C3.29743 27.7566 3.73482 28.0053 4.12847 28.1296C4.50025 28.254 5.06886 28.3369 5.30942 28.3369C5.6812 28.3369 6.1842 28.2954 6.51225 28.0675C6.81842 27.8395 6.88403 27.4664 6.73094 27.1348C6.57785 26.741 6.14046 26.5752 6.14046 26.5752C5.57186 26.3473 4.58773 26.0778 4.58773 26.0778C3.18808 25.6633 0.563744 24.9379 0.520005 22.5752C0.476266 20.3783 2.33517 18.9897 5.28755 18.9897ZM17.775 19.0934C20.1807 19.0934 21.974 20.3162 22.9581 22.14C23.0018 22.2022 23.1112 22.4509 23.1987 22.6996C23.5267 23.5701 23.0456 24.4198 22.1708 24.6892L15.4569 26.6789C15.7412 27.6944 16.7253 28.2125 17.8406 28.2125C18.5842 28.2125 19.459 28.0467 20.2463 27.2177C20.3994 27.0519 20.6399 26.8861 20.8586 26.8032C21.0336 26.741 21.2304 26.6996 21.4054 26.6996C21.9958 26.6996 22.5207 27.0105 22.7394 27.5493C23.1768 28.7307 21.8428 29.7048 21.8428 29.7048C20.793 30.4923 19.3496 30.8861 17.8406 30.8861C14.1666 30.8861 11.8703 28.254 11.8703 24.9794C11.8484 21.539 14.3415 19.0934 17.775 19.0934ZM30.8311 19.0934C33.2368 19.0934 35.0301 20.3162 36.0142 22.14C36.0579 22.2022 36.1673 22.4509 36.2547 22.6996C36.5828 23.5701 36.1017 24.4198 35.2269 24.6892L28.513 26.6789C28.7973 27.6944 29.7814 28.2125 30.8967 28.2125C31.6403 28.2125 32.5151 28.0467 33.3024 27.2177C33.4555 27.0519 33.696 26.8861 33.9147 26.8032C34.0897 26.741 34.2865 26.6996 34.4615 26.6996C35.0519 26.6996 35.5768 27.0105 35.7736 27.5493C36.211 28.7307 34.877 29.7048 34.877 29.7048C33.8272 30.4923 32.3839 30.8861 30.8749 30.8861C27.2008 30.8861 24.9045 28.254 24.9045 24.9794C24.9045 21.539 27.3976 19.0934 30.8311 19.0934ZM56.2872 19.3214C58.7803 19.3214 60.2456 20.7307 60.3987 20.8758C61.8421 22.2436 61.9951 23.8809 61.9951 24.5234V29.2074C61.9951 29.4146 61.9514 29.6011 61.8639 29.7669C61.6452 30.2851 61.0985 30.6581 60.4643 30.6581C59.8301 30.6581 59.3052 30.3058 59.0646 29.7877C58.9771 29.6219 58.9334 29.4146 58.9334 29.2281V24.5234C58.9334 24.254 58.8678 23.5286 58.1898 22.8861C58.1461 22.8447 57.4463 22.2022 56.2435 22.2022H56.2216H56.1997C55.0188 22.2022 54.2971 22.8447 54.2971 22.8654C53.5973 23.5493 53.5098 24.254 53.5098 24.5234V29.2074C53.5098 29.4146 53.466 29.6011 53.3786 29.7669C53.1599 30.2851 52.6131 30.6374 51.9789 30.6374C51.5634 30.6374 51.1916 30.4716 50.9073 30.2229C50.623 29.9535 50.4699 29.6011 50.4699 29.2074V24.482C50.4699 23.8188 50.6667 22.2229 52.1101 20.855C52.2413 20.7307 53.7066 19.3214 56.1997 19.3214H56.2216C56.2653 19.3214 56.2653 19.3214 56.2872 19.3214ZM47.0145 19.3628C47.4301 19.3628 47.8456 19.5079 48.1299 19.798C48.6766 20.3576 48.6766 21.1659 48.1955 21.7048L43.0124 27.4457C42.8812 27.5908 42.9906 27.8188 43.1874 27.8188H47.3644C48.1736 27.8188 48.8953 28.3991 48.9391 29.1452C48.9828 29.9535 48.3048 30.6374 47.4519 30.6374H39.4696C39.054 30.6374 38.6385 30.4923 38.3542 30.2022C37.8075 29.6426 37.8075 28.8343 38.2886 28.2954L43.4717 22.5545C43.6029 22.4094 43.4935 22.1815 43.2967 22.1815H39.5352C38.726 22.1815 38.0043 21.6011 37.9606 20.855C37.9168 20.0467 38.5948 19.3628 39.4477 19.3628H47.0145ZM17.6219 21.7048C16.4847 21.7048 15.5006 22.3473 15.1726 23.2799C15.1726 23.2799 14.9976 23.7566 15.0413 24.4612L19.7214 23.0726L19.9401 23.0105C19.5683 22.2644 18.6498 21.7048 17.6219 21.7048ZM30.678 21.7048C29.5408 21.7048 28.5567 22.3473 28.2286 23.2799C28.2286 23.2799 28.0537 23.7566 28.0974 24.4612L32.7775 23.0726L32.9962 23.0105C32.6244 22.2644 31.7059 21.7048 30.678 21.7048Z" fill="#FF195A"/>
</svg>
