<svg width="86" height="58" viewBox="0 0 86 58" fill="none" xmlns="http://www.w3.org/2000/svg">
<path d="M45.2206 22H40.6465V36H45.2206V22Z" fill="#FF143C"/>
<path d="M55.2065 28.215L50.6384 22.391C50.4461 22.1442 50.1489 22 49.8357 22H46.8848V36H51.4589V29.8462L55.9755 35.609C56.1677 35.8558 56.465 36 56.7781 36H59.7767V22H55.2026V28.215H55.2065Z" fill="#FF143C"/>
<path d="M68.8978 31.91H65.9666V26.09H71.7576C72.1817 26.09 72.5622 25.8273 72.7128 25.4304L73.9991 22H61.3945V36H73.9991V28.0155H68.8978V31.91Z" fill="#FF143C"/>
<path d="M34.7631 22.6833L32.4146 29.4276L30.0681 22.6833C29.9254 22.2745 29.5389 22 29.1049 22H24.6973L30.1315 36H34.7016L40.1358 22H35.7282C35.2922 22 34.9057 22.2745 34.7631 22.6833Z" fill="#FF143C"/>
<path d="M22.9061 22H12V26.4238H16.3204V35.998H20.8945V26.4238H25.322L23.8554 22.6478C23.7048 22.2587 23.3262 22 22.9061 22Z" fill="#FF143C"/>
</svg>
