<svg width="62" height="50" viewBox="0 0 62 50" fill="none" xmlns="http://www.w3.org/2000/svg">
<g clip-path="url(#clip0_50_178)">
<path d="M31.9487 21.1821C29.5863 21.1821 27.6719 23.0419 27.6719 25.3368C27.6719 27.6317 29.5863 29.4915 31.9487 29.4915C33.0783 29.4915 34.1069 29.064 34.8719 28.369V29.4915H36.2255V25.3368C36.2255 23.0419 34.3111 21.1821 31.9487 21.1821ZM31.9487 28.1746C30.3355 28.1746 29.0255 26.9039 29.0255 25.3349C29.0255 23.7677 30.3335 22.4951 31.9487 22.4951C33.5619 22.4951 34.8719 23.7658 34.8719 25.3349C34.8719 26.9039 33.5619 28.1746 31.9487 28.1746Z" fill="black"/>
<path d="M40.8 27.932C40.7822 27.9878 40.6989 27.9878 40.6811 27.932L38.4337 21.1821H37.0801L39.5713 28.6655C39.7357 29.1584 40.2074 29.4934 40.7405 29.4934C41.2737 29.4934 41.7453 29.1603 41.9098 28.6655L44.401 21.1821H43.0474L40.8 27.932Z" fill="black"/>
<path d="M48.9836 27.932C48.9658 27.9878 48.8825 27.9878 48.8647 27.932L46.6173 21.1821H45.2637L47.7549 28.6655C47.9193 29.1584 48.391 29.4934 48.9241 29.4934C49.4573 29.4934 49.9289 29.1603 50.0934 28.6655L52.5846 21.1821H51.231L48.9836 27.932Z" fill="black"/>
<path d="M23.3924 27.932C23.3746 27.9878 23.2913 27.9878 23.2735 27.932L21.0261 21.1821H21.0201H19.6725H19.6665L17.4191 27.932C17.4013 27.9878 17.318 27.9878 17.3002 27.932L15.0548 21.1821H13.7012L16.1904 28.6636C16.3549 29.1564 16.8265 29.4914 17.3597 29.4914C17.8928 29.4914 18.3645 29.1584 18.5289 28.6636L20.2868 23.3846C20.3047 23.3287 20.3879 23.3287 20.4057 23.3846L22.1617 28.6636C22.3262 29.1564 22.7978 29.4914 23.331 29.4914C23.8641 29.4914 24.3357 29.1584 24.5002 28.6636L26.9914 21.1802H25.6378L23.3924 27.932Z" fill="black"/>
<path d="M62.0009 25.3368C62.0009 23.0419 60.0864 21.1821 57.7241 21.1821C55.3617 21.1821 53.4473 23.0419 53.4473 25.3368C53.4473 27.6317 55.3617 29.4915 57.7241 29.4915C59.4443 29.4915 60.9267 28.5038 61.6045 27.0811H60.025C59.4919 27.7472 58.6595 28.1746 57.7241 28.1746C56.3427 28.1746 55.1893 27.2428 54.8841 25.9933H61.9474C61.9831 25.7796 62.0009 25.5601 62.0009 25.3368ZM54.8841 24.6784C55.1893 23.4289 56.3447 22.4971 57.7241 22.4971C59.1054 22.4971 60.2589 23.4289 60.5641 24.6784H54.8841Z" fill="black"/>
<path d="M9.05108 23.8024L1.81141 19.1876C1.03254 18.6909 0 19.2338 0 20.1367V25.0153V28.3363V29.8611C0 30.764 1.03254 31.3069 1.81141 30.8102L4.10836 29.3451L8.00467 26.8616L9.05306 26.1935C9.93895 25.6313 9.93895 24.3665 9.05108 23.8024Z" fill="#022CA4"/>
<path d="M6.81361 27.0211C5.41839 27.0211 4.7406 26.5051 4.02119 25.9584C3.31764 25.4231 2.5903 24.8706 1.15544 24.8706C0.707547 24.8706 0.329015 24.9245 -0.00195312 25.015V28.336V29.8608C-0.00195312 30.7638 1.03059 31.3067 1.80945 30.81L4.10641 29.3449L8.00271 26.8613C7.66778 26.9614 7.28132 27.0211 6.81361 27.0211Z" fill="#0652DB"/>
<path d="M1.1574 28.1938C0.7095 28.1938 0.330968 28.2478 0 28.3382V29.863C0 30.766 1.03254 31.3089 1.81141 30.8122L4.10836 29.3471C4.07863 29.3259 4.05089 29.3028 4.02116 29.2816C3.31761 28.7464 2.59027 28.1938 1.1574 28.1938Z" fill="#18B0DF"/>
</g>
<defs>
<clipPath id="clip0_50_178">
<rect width="62" height="50" fill="white"/>
</clipPath>
</defs>
</svg>
