<svg width="62" height="50" viewBox="0 0 62 50" fill="none" xmlns="http://www.w3.org/2000/svg">
<path d="M0 18.22H3.8626L5.25016 28.1488L5.69656 28.12L7.316 18.22H10.416L11.9697 27.7168L12.4186 27.688L13.888 14.5H17.732L14.5167 31.786L10.509 32.044L9.06068 23.2H8.67132L7.18828 32.2576L3.41 32.5L0 18.22Z" fill="#FF0558"/>
<path d="M18.9912 18.22L16.5 31.78H19.5008L19.8393 29.5888H22.6789L23.01 31.78H26.0393L23.5196 18.22H18.9912ZM20.2175 27.1228L21.0855 21.4828H21.4575L22.3106 27.1228H20.2175Z" fill="#FF0558"/>
<path d="M59.4806 18.22H54.9521L52.4609 31.78H55.4617L55.8003 29.5888H58.6399L58.9709 31.78H62.0003L59.4806 18.22ZM56.1785 27.1228L57.0465 21.4828H57.4185L58.2716 27.1228H56.1785Z" fill="#FF0558"/>
<path d="M37.8209 18.0833C35.0594 18.0833 33.7363 19.5353 33.7363 21.7817V28.2185C33.7363 30.4649 35.0594 31.9169 37.8209 31.9169C40.5824 31.9169 41.9054 30.4649 41.9054 28.2185V25.8905H38.8352V28.4933C38.8352 29.2049 38.5537 29.4533 37.8209 29.4533C37.088 29.4533 36.8066 29.2061 36.8066 28.4933V21.5069C36.8066 20.7953 37.088 20.5469 37.8209 20.5469C38.5537 20.5469 38.8352 20.7941 38.8352 21.5069V23.0417H41.9054V21.7817C41.9054 19.5401 40.5824 18.0833 37.8209 18.0833Z" fill="#FF0558"/>
<path d="M25.209 21.0412H27.7386V31.78H30.789V21.0412H33.021V18.22H25.209V21.0412Z" fill="#FF0558"/>
<path d="M48.5129 23.5864H46.3281V18.22H43.2578V31.78H46.3281V26.3464H48.5129V31.78H51.5832V18.22H48.5129V23.5864Z" fill="#FF0558"/>
</svg>
