<svg width="49" height="48" viewBox="0 0 49 48" fill="none" xmlns="http://www.w3.org/2000/svg">
<path fill-rule="evenodd" clip-rule="evenodd" d="M32.0135 16.4862C31.6363 16.109 31.0247 16.109 30.6474 16.4862L24.5 22.6336L18.3526 16.4862C17.9753 16.1089 17.3637 16.1089 16.9865 16.4862C16.6092 16.8634 16.6092 17.4751 16.9865 17.8523L23.1339 23.9997L16.9862 30.1474C16.609 30.5247 16.609 31.1363 16.9862 31.5135C17.3634 31.8908 17.9751 31.8908 18.3523 31.5135L24.5 25.3659L30.6477 31.5135C31.0249 31.8908 31.6366 31.8908 32.0138 31.5135C32.391 31.1363 32.391 30.5247 32.0138 30.1474L25.8661 23.9997L32.0135 17.8523C32.3908 17.4751 32.3908 16.8634 32.0135 16.4862Z" fill="#7E7E7E"/>
</svg>
