<svg width="256" height="256" viewBox="0 0 256 256" fill="none" xmlns="http://www.w3.org/2000/svg">
<rect width="256" height="256" fill="#501EE0"/>
<path d="M228.999 130.933C228.999 134.842 227.417 138.068 224.253 140.612C223.756 141.108 222.887 142.008 221.647 143.311C223.508 145.545 224.439 148.213 224.439 151.315C224.439 152.928 224.159 154.479 223.601 155.968C224.159 157.458 224.439 159.009 224.439 160.622C224.439 164.159 223.26 167.106 220.902 169.464C218.606 171.821 215.69 173 212.153 173H203.87C195.494 173 188.421 170.115 182.65 164.345C176.942 158.636 174.088 151.563 174.088 143.125C174.088 141.574 174.212 140.022 174.46 138.471C174.212 136.92 174.088 135.369 174.088 133.818C174.088 125.379 176.942 118.306 182.65 112.598C188.359 106.89 195.432 104.035 203.87 104.035C209.392 104.035 214.759 105.556 219.971 108.596C225.99 112.07 228.999 116.414 228.999 121.626C228.999 123.301 228.689 124.852 228.068 126.279C228.689 127.768 228.999 129.319 228.999 130.933ZM222.95 121.626C222.95 120.074 222.329 118.647 221.088 117.344C216.373 112.505 210.633 110.085 203.87 110.085C197.107 110.085 191.461 112.35 186.932 116.879C182.402 121.408 180.137 127.055 180.137 133.818C180.137 140.581 182.402 146.258 186.932 150.85C191.461 155.379 197.107 157.644 203.87 157.644H212.153C214.015 157.644 215.504 157.054 216.621 155.875C217.8 154.696 218.389 153.176 218.389 151.315C218.389 149.454 217.8 147.964 216.621 146.848C215.504 145.669 214.015 145.079 212.153 145.079H203.87C200.768 145.079 198.131 143.993 195.959 141.822C193.788 139.588 192.702 136.92 192.702 133.818C192.702 130.715 193.788 128.078 195.959 125.907C198.131 123.735 200.768 122.649 203.87 122.649C204.677 122.649 205.483 122.711 206.29 122.836L199.589 129.444C198.224 130.809 197.541 132.267 197.541 133.818C197.541 135.555 198.162 137.075 199.403 138.378C200.706 139.681 202.226 140.333 203.963 140.333C205.514 140.333 206.973 139.681 208.338 138.378L220.251 126.744C222.05 125.379 222.95 123.673 222.95 121.626Z" fill="white"/>
<path d="M179.726 137.701C179.726 145.023 177.213 151.196 172.187 156.222C167.161 161.31 160.988 163.854 153.666 163.854C146.283 163.854 140.078 161.341 135.052 156.315C130.027 151.289 127.514 145.085 127.514 137.701V96.3783C127.514 92.8416 128.662 89.8944 130.957 87.5366C133.315 85.1789 136.262 84 139.799 84C143.087 84 145.879 85.0548 148.175 87.1644C150.533 89.274 151.867 91.973 152.177 95.2614H167.441C170.977 95.2614 173.893 96.4403 176.189 98.7981C178.547 101.094 179.726 104.01 179.726 107.547C179.726 109.284 179.478 110.897 178.981 112.386C179.478 113.813 179.726 115.302 179.726 116.854C179.726 118.901 179.385 120.763 178.702 122.438C179.385 124.051 179.726 125.757 179.726 127.557V128.394C179.726 130.132 179.571 131.807 179.26 133.42C179.571 134.537 179.726 135.685 179.726 136.864V137.701ZM173.676 128.394V127.557C173.676 125.757 173.087 124.268 171.908 123.089C170.729 121.91 169.24 121.321 167.441 121.321C165.641 121.321 164.121 121.91 162.88 123.089C161.701 124.268 161.112 125.757 161.112 127.557V128.394C161.112 130.504 160.398 132.303 158.971 133.792C157.544 135.219 155.776 135.933 153.666 135.933C151.557 135.933 149.757 135.219 148.268 133.792C146.841 132.303 146.128 130.504 146.128 128.394V113.875H167.441C171.598 113.875 173.676 111.766 173.676 107.547C173.676 105.685 173.087 104.196 171.908 103.079C170.791 101.9 169.302 101.311 167.441 101.311H146.128V96.3783C146.128 94.5169 145.538 92.9967 144.359 91.8179C143.18 90.639 141.66 90.0495 139.799 90.0495C137.937 90.0495 136.417 90.639 135.238 91.8179C134.122 92.9967 133.563 94.5169 133.563 96.3783V128.394C133.563 134.165 135.456 138.973 139.24 142.82C143.087 146.605 147.896 148.497 153.666 148.497C159.375 148.497 164.121 146.574 167.906 142.727C171.753 138.88 173.676 134.103 173.676 128.394ZM154.876 129.232H152.363C152.674 129.666 153.108 129.883 153.666 129.883C154.225 129.883 154.628 129.666 154.876 129.232Z" fill="white"/>
<path d="M133.101 143.701C133.101 151.023 130.588 157.196 125.562 162.222C120.536 167.31 114.363 169.854 107.041 169.854C99.6577 169.854 93.4531 167.341 88.4273 162.315C83.4016 157.289 80.8887 151.085 80.8887 143.701V102.378C80.8887 98.8416 82.0365 95.8944 84.3323 93.5366C86.69 91.1789 89.6372 90 93.1739 90C96.4623 90 99.2544 91.0548 101.55 93.1644C103.908 95.274 105.242 97.973 105.552 101.261H120.816C124.352 101.261 127.268 102.44 129.564 104.798C131.922 107.094 133.101 110.01 133.101 113.547C133.101 115.284 132.853 116.897 132.356 118.386C132.853 119.813 133.101 121.302 133.101 122.854C133.101 124.901 132.76 126.763 132.077 128.438C132.76 130.051 133.101 131.757 133.101 133.557V134.394C133.101 136.132 132.946 137.807 132.635 139.42C132.946 140.537 133.101 141.685 133.101 142.864V143.701ZM127.051 134.394V133.557C127.051 131.757 126.462 130.268 125.283 129.089C124.104 127.91 122.615 127.321 120.816 127.321C119.016 127.321 117.496 127.91 116.255 129.089C115.076 130.268 114.487 131.757 114.487 133.557V134.394C114.487 136.504 113.773 138.303 112.346 139.792C110.919 141.219 109.151 141.933 107.041 141.933C104.932 141.933 103.132 141.219 101.643 139.792C100.216 138.303 99.5026 136.504 99.5026 134.394V119.875H120.816C124.973 119.875 127.051 117.766 127.051 113.547C127.051 111.685 126.462 110.196 125.283 109.079C124.166 107.9 122.677 107.311 120.816 107.311H99.5026V102.378C99.5026 100.517 98.9132 98.9967 97.7343 97.8179C96.5554 96.639 95.0353 96.0495 93.1739 96.0495C91.3125 96.0495 89.7923 96.639 88.6135 97.8179C87.4966 98.9967 86.9382 100.517 86.9382 102.378V134.394C86.9382 140.165 88.8306 144.973 92.6155 148.82C96.4624 152.605 101.271 154.497 107.041 154.497C112.75 154.497 117.496 152.574 121.281 148.727C125.128 144.88 127.051 140.103 127.051 134.394ZM108.251 135.232H105.738C106.049 135.666 106.483 135.883 107.041 135.883C107.6 135.883 108.003 135.666 108.251 135.232Z" fill="white"/>
<path d="M86.6577 143.125C86.6577 151.501 83.7726 158.574 78.0022 164.345C72.2319 170.115 65.1586 173 56.7823 173C48.344 173 41.2707 170.115 35.5624 164.345C29.8541 158.636 27 151.563 27 143.125C27 141.574 27.1241 140.022 27.3723 138.471C27.1241 136.92 27 135.369 27 133.818C27 125.379 29.8541 118.306 35.5624 112.598C41.2707 106.89 48.344 104.035 56.7823 104.035C65.2207 104.035 72.294 106.89 78.0022 112.598C83.7726 118.306 86.6577 125.379 86.6577 133.818C86.6577 135.431 86.5336 137.013 86.2855 138.564C86.5336 140.053 86.6577 141.574 86.6577 143.125ZM80.6082 133.818C80.6082 127.055 78.3125 121.408 73.721 116.879C69.1916 112.35 63.5454 110.085 56.7823 110.085C50.0193 110.085 44.373 112.35 39.8436 116.879C35.3142 121.408 33.0495 127.055 33.0495 133.818C33.0495 140.581 35.3142 146.258 39.8436 150.85C44.373 155.379 50.0193 157.644 56.7823 157.644C63.5454 157.644 69.1916 155.379 73.721 150.85C78.3125 146.258 80.6082 140.581 80.6082 133.818ZM68.0438 133.818C68.0438 136.92 66.9269 139.588 64.6933 141.822C62.5216 143.993 59.8847 145.079 56.7823 145.079C53.68 145.079 51.043 143.993 48.8714 141.822C46.6998 139.588 45.614 136.92 45.614 133.818C45.614 130.715 46.6998 128.078 48.8714 125.907C51.043 123.735 53.68 122.649 56.7823 122.649C59.8847 122.649 62.5216 123.735 64.6933 125.907C66.9269 128.078 68.0438 130.715 68.0438 133.818Z" fill="white"/>
</svg>
