<svg width="87" height="58" viewBox="0 0 87 58" fill="none" xmlns="http://www.w3.org/2000/svg">
<path d="M57.7198 17.2983V34.3457C59.7959 34.4435 61.8664 34.5618 63.9313 34.7013V38.3156C60.6564 38.0945 57.3782 37.9266 54.0981 37.8122V17.2983H57.7198ZM86.5 17.3004L81.784 28.3747L86.4988 40.6985L86.4936 40.7007C85.1189 40.5026 83.7429 40.3141 82.3656 40.1353L79.7179 33.2186L77.0451 39.4933C75.7782 39.3516 74.5099 39.2177 73.2386 39.0918L77.836 28.3005L73.6256 17.3006H77.5434L79.9009 23.4565L82.5222 17.3004H86.5ZM41.6681 37.6331V17.3002H51.7781V20.9471H45.2898V25.6732H50.199V29.2876H45.2898V37.6324L41.6681 37.6331ZM28.1444 20.9473V17.3H39.3462V20.9471H35.556V37.7319C34.3472 37.7643 33.1396 37.802 31.9346 37.8481V20.9473H28.1444ZM15.7631 38.8988V17.3007H25.8228V20.9474H19.3844V25.8873C20.8635 25.868 22.9666 25.8464 24.2751 25.8495V29.4642C22.6372 29.4438 20.7884 29.487 19.3844 29.5011V34.9731C21.5289 34.802 23.6752 34.6534 25.8228 34.5274V38.1421C22.4657 38.3383 19.112 38.5907 15.7631 38.8992V38.8988ZM8.65856 30.5435L8.65839 17.3H12.2801V39.2398C10.9562 39.3776 9.63463 39.5244 8.31557 39.6794L4.12157 27.4761V40.202C2.91203 40.3616 1.70484 40.5278 0.5 40.7015V17.3004H3.94184L8.65839 30.5435H8.65856ZM66.9191 38.5336V17.3004H70.541V38.8366C69.3351 38.7277 68.1283 38.6273 66.9191 38.5338V38.5336Z" fill="#DB202C"/>
</svg>
