<svg width="62" height="50" viewBox="0 0 62 50" fill="none" xmlns="http://www.w3.org/2000/svg">
<path d="M43.8127 30.1532C42.9551 30.3576 40.6979 30.4753 40.6979 30.4753L40.412 31.4045C40.412 31.4045 41.5376 31.3054 42.3595 31.3922C42.3595 31.3922 42.6275 31.3612 42.6573 31.7081C42.6692 32.0302 42.6335 32.3771 42.6335 32.3771C42.6335 32.3771 42.6156 32.5877 42.3298 32.6373C42.0201 32.693 39.8998 32.7736 39.8998 32.7736L39.5543 33.9815C39.5543 33.9815 39.4293 34.2603 39.7151 34.1798C39.9832 34.1054 42.2047 33.6718 42.4965 33.7337C42.8062 33.8143 43.1517 34.2417 43.0504 34.6382C42.9313 35.1214 40.7157 36.5957 39.3638 36.4904C39.3638 36.4904 38.655 36.5399 38.0535 35.5426C37.4936 34.5948 38.2679 32.7921 38.2679 32.7921C38.2679 32.7921 37.9165 31.9497 38.1726 31.6709C38.1726 31.6709 38.3274 31.5284 38.7682 31.4913L39.3102 30.3205C39.3102 30.3205 38.6907 30.3638 38.3215 29.893C37.9761 29.4408 37.9522 29.2364 38.2143 29.1125C38.4942 28.97 41.0731 28.4806 42.8479 28.5426C42.8479 28.5426 43.4673 28.4806 43.9974 29.5957C43.9914 29.5957 44.2535 30.0479 43.8127 30.1532ZM37.1363 34.6506C36.91 35.2081 36.3084 35.8028 35.5639 35.4311C34.8254 35.0594 33.6521 32.5629 33.6521 32.5629C33.6521 32.5629 33.2054 31.6337 33.1221 31.6523C33.1221 31.6523 33.0268 31.4727 32.9672 32.4886C32.9077 33.5045 32.9791 35.4806 32.592 35.7904C32.2227 36.1001 31.7761 35.9762 31.5438 35.6107C31.3353 35.2514 31.246 34.3966 31.3591 32.8975C31.4961 31.3983 31.8297 29.8001 32.2585 29.2983C32.6873 28.8028 33.0327 29.1621 33.1638 29.2921C33.1638 29.2921 33.7355 29.8311 34.6825 31.4169L34.8493 31.7081C34.8493 31.7081 35.7069 33.2072 35.7962 33.201C35.7962 33.201 35.8677 33.2691 35.9273 33.2196C36.0166 33.1948 35.9809 32.7116 35.9809 32.7116C35.9809 32.7116 35.8022 31.0824 35.022 28.3196C35.022 28.3196 34.9029 27.9727 34.9862 27.6506C35.0637 27.3222 35.3793 27.4771 35.3793 27.4771C35.3793 27.4771 36.5943 28.109 37.178 30.1656C37.7557 32.2408 37.3626 34.093 37.1363 34.6506ZM31.1686 29.3665C31.0673 29.5771 31.0078 29.8806 30.4956 29.9612C30.4956 29.9612 25.5939 30.3081 25.3616 30.6674C25.3616 30.6674 25.1889 30.878 25.4569 30.9399C25.7249 30.9957 26.8327 31.1506 27.3688 31.1815C27.9405 31.1877 29.8702 31.2063 30.5611 32.1045C30.5611 32.1045 30.972 32.532 30.9542 33.4983C30.9363 34.4895 30.7695 34.8364 30.4003 35.1957C30.0131 35.5302 26.6898 37.0789 24.5457 34.7001C24.5457 34.7001 23.557 33.5541 24.8852 32.6868C24.8852 32.6868 25.8441 32.086 28.28 32.7921C28.28 32.7921 29.0185 33.0709 28.9828 33.3497C28.9411 33.647 28.3753 33.9629 27.5534 33.9444C26.7553 33.9196 26.1716 33.5231 26.2848 33.5851C26.392 33.6284 25.4272 33.1019 25.1294 33.4612C24.8316 33.7895 24.903 33.9939 25.1949 34.1983C25.9394 34.6382 28.816 34.4833 29.6737 33.4922C29.6737 33.4922 30.0131 33.0895 29.495 32.7612C28.9768 32.4514 27.4938 32.2656 26.9161 32.2346C26.3622 32.2037 24.3015 32.2408 24.0037 31.6709C24.0037 31.6709 23.7059 31.2868 24.0335 30.1966C24.3789 29.0568 26.7791 28.6169 27.8154 28.5178C27.8154 28.5178 30.6683 28.4125 31.1924 29.0196C31.1864 29.0196 31.2579 29.1621 31.1686 29.3665ZM23.0687 36.0506C22.7232 36.3169 21.9907 36.1992 21.7822 35.9019C21.5737 35.6355 21.5023 34.5762 21.544 32.916C21.5857 31.2373 21.6214 29.1559 21.9668 28.8275C22.3361 28.493 22.5624 28.7842 22.7054 29.0134C22.8602 29.2364 23.0448 29.4842 23.0865 30.0107C23.1223 30.5373 23.2414 33.3001 23.2414 33.3001C23.2414 33.3001 23.3962 35.7904 23.0687 36.0506ZM23.8131 27.1426C22.8066 27.4895 22.1157 27.3718 21.5321 27.1116C21.276 27.5762 21.1271 27.7187 20.9305 27.7497C20.6446 27.7806 20.3885 27.3037 20.3409 27.1488C20.2932 27.0311 20.1563 26.8329 20.323 26.3621C19.7513 25.8293 19.7096 25.1107 19.8049 24.6275C19.9478 24.07 20.9127 21.9514 23.8489 21.7037C23.8489 21.7037 25.2842 21.5921 25.5284 22.3913H25.5701C25.5701 22.3913 26.9638 22.3975 26.934 23.686C26.9161 24.9806 25.3855 26.5913 23.8131 27.1426ZM21.0735 24.2745C20.7757 24.77 20.7638 25.0674 20.9007 25.2718C21.2402 24.7329 21.8596 23.8842 22.7709 23.2399C22.0681 23.3019 21.4785 23.6178 21.0735 24.2745ZM25.1294 23.4444C24.2062 23.5868 22.7768 24.8753 22.0979 25.9284C23.1401 26.1267 24.9805 26.0523 25.7964 24.324C25.7905 24.324 26.1835 23.2523 25.1294 23.4444ZM50.1914 33.424C49.6375 34.4275 48.0831 36.5214 46.0104 36.032C45.3255 37.7603 44.7538 39.501 44.4262 42.1152C44.4262 42.1152 44.3547 42.6231 43.9497 42.4435C43.5507 42.2948 42.8836 41.601 42.7526 40.6408C42.6097 39.3771 43.1517 37.2399 44.2535 34.793C43.9319 34.2479 43.7115 33.4674 43.9021 32.3585C43.9021 32.3585 44.182 30.3019 46.1653 28.4435C46.1653 28.4435 46.4035 28.2267 46.5405 28.2948C46.6954 28.3629 46.6239 29.032 46.4988 29.3541C46.3737 29.6762 45.4863 31.2745 45.4863 31.2745C45.4863 31.2745 44.9324 32.3523 45.0873 33.201C46.1296 31.5346 48.5 28.1709 49.9711 29.2302C50.4654 29.5957 50.6917 30.3948 50.6917 31.2559C50.6858 32.0178 50.513 32.8231 50.1914 33.424ZM49.7626 30.7851C49.7626 30.7851 49.6792 30.1222 49.0598 30.8532C48.5238 31.4665 47.559 32.6249 46.7787 34.1922C47.5947 34.0992 48.3809 33.6346 48.6191 33.3992C49.0062 33.0399 49.9055 32.0736 49.7626 30.7851ZM20.8471 31.6275C20.734 33.1267 20.1801 35.6479 16.2552 36.893C13.6644 37.7045 11.2166 37.3143 9.88249 36.9612C9.85271 37.5125 9.79315 37.7479 9.70977 37.8408C9.59661 37.9585 8.75089 38.4665 8.28633 37.7479C8.07788 37.4072 7.97067 36.7877 7.91112 36.2364C4.90939 34.7992 3.52764 32.7302 3.47404 32.6373C3.40852 32.5691 2.7236 31.8258 3.40852 30.9152C4.05175 30.0913 6.15415 29.2674 8.0481 28.9329C8.11361 27.2479 8.3042 25.978 8.53052 25.3957C8.80449 24.7205 9.14992 25.3275 9.44771 25.786C9.69786 26.1267 9.84675 27.5948 9.85867 28.7656C11.0975 28.7037 11.83 28.7966 13.2118 29.0568C15.0104 29.3975 16.2135 30.3514 16.1063 31.4355C16.0289 32.501 15.0879 32.9408 14.7305 32.9718C14.3553 33.0028 13.7716 32.724 13.7716 32.724C13.3726 32.5258 13.7419 32.3523 14.2243 32.1355C14.7484 31.8691 14.6293 31.5966 14.6293 31.5966C14.4327 31.0019 12.0981 30.5868 9.77528 30.5868C9.76337 31.9187 9.82889 34.1302 9.85867 35.4187C11.4846 35.7408 12.6996 35.6789 12.6996 35.6789C12.6996 35.6789 18.6316 35.5054 18.8102 31.5656C18.9949 27.6196 12.8961 23.8346 8.38758 22.6329C3.88499 21.4063 1.3359 22.2612 1.11553 22.3789C0.877302 22.5028 1.09767 22.5399 1.09767 22.5399C1.09767 22.5399 1.34185 22.5771 1.76472 22.7258C2.2114 22.8745 1.86597 23.116 1.86597 23.116C1.09767 23.37 0.234074 23.209 0.0673112 22.8435C-0.0994515 22.478 0.180472 22.1497 0.502085 21.6789C0.823699 21.1833 1.17509 21.2019 1.17509 21.2019C6.74378 19.1948 13.5274 22.8249 13.5274 22.8249C19.8823 26.1762 20.9663 30.1037 20.8471 31.6275ZM4.03984 31.4231C3.40852 31.7452 3.8433 32.2098 3.8433 32.2098C5.0285 33.5355 6.48768 34.3656 7.87538 34.8798C8.03619 32.5939 8.01236 31.7886 8.03023 30.6364C5.86232 30.7913 4.6116 31.1506 4.03984 31.4231Z" fill="#01147C"/>
<path d="M61.9833 30.9524V31.7701C61.9833 31.9497 61.8463 32.0922 61.6736 32.0922H57.9274C57.9274 32.2966 57.9334 32.4763 57.9334 32.6435C57.9334 33.8515 57.8857 34.8364 57.7726 35.9453C57.7547 36.1125 57.6237 36.2364 57.4688 36.2364H56.6588C56.5754 36.2364 56.498 36.1993 56.4444 36.1373C56.3908 36.0754 56.361 35.9886 56.3729 35.9019C56.4861 34.7993 56.5397 33.8267 56.5397 32.6435C56.5397 32.4701 56.5397 32.2904 56.5338 32.0922H52.8292C52.6565 32.0922 52.5195 31.9497 52.5195 31.7701V30.9524C52.5195 30.7727 52.6565 30.6302 52.8292 30.6302H56.4801C56.4027 29.2984 56.2479 28.0161 55.9977 26.7152C55.9858 26.6347 56.0037 26.5541 56.0513 26.4922C56.099 26.4302 56.1704 26.3931 56.2479 26.3931H57.1234C57.2604 26.3931 57.3735 26.4922 57.4033 26.6347C57.6475 27.9789 57.8023 29.286 57.8798 30.6302H61.6736C61.8404 30.6302 61.9833 30.7789 61.9833 30.9524Z" fill="#01147C"/>
<path d="M56.8859 24.4665C54.9503 19.5169 51.6805 15.2984 47.4281 12.263C43.0744 9.15942 37.9703 7.51782 32.6696 7.51782C23.9026 7.51782 15.767 12.0461 10.913 19.6346C10.8594 19.7152 10.8475 19.8205 10.8773 19.9134C10.9071 20.0125 10.9785 20.0807 11.0679 20.1116L11.7468 20.3532C11.7885 20.3656 11.8302 20.3718 11.8659 20.3718C11.991 20.3718 12.1101 20.3037 12.1816 20.1984C14.4091 16.7913 17.4227 13.9603 20.9009 12.0028C24.4923 9.98331 28.5601 8.91163 32.6636 8.91163C37.6248 8.91163 42.4073 10.4355 46.5049 13.3099C50.5013 16.1161 53.6043 20.0373 55.4804 24.6399C55.534 24.7762 55.665 24.8692 55.8079 24.8692H56.6179C56.7132 24.8692 56.8025 24.8196 56.8502 24.7391C56.9098 24.6585 56.9217 24.5594 56.8859 24.4665ZM11.8659 20.1612H11.8779C11.8779 20.1612 11.8719 20.1612 11.8659 20.1612ZM55.6412 24.7576C55.659 24.77 55.6769 24.7824 55.6948 24.7886C55.6769 24.7762 55.659 24.77 55.6412 24.7576Z" fill="url(#paint0_radial_50_155)"/>
<defs>
<radialGradient id="paint0_radial_50_155" cx="0" cy="0" r="1" gradientUnits="userSpaceOnUse" gradientTransform="translate(56.125 24.8379) scale(45.2716 47.0873)">
<stop offset="0.007" stop-color="#021192"/>
<stop offset="0.03" stop-color="#021096"/>
<stop offset="0.057" stop-color="#010CB4"/>
<stop offset="0.084" stop-color="#0008CE"/>
<stop offset="0.111" stop-color="#0006D7"/>
<stop offset="0.138" stop-color="#0004E1"/>
<stop offset="0.165" stop-color="#0001FA"/>
<stop offset="0.191" stop-color="#0000FE"/>
<stop offset="0.216" stop-color="#0F1EFF"/>
<stop offset="1" stop-color="#00FFFF" stop-opacity="0"/>
</radialGradient>
</defs>
</svg>
