<svg width="86" height="58" viewBox="0 0 86 58" fill="none" xmlns="http://www.w3.org/2000/svg">
<path d="M32.2482 30.6781C29.2059 31.1288 26.9572 30.6781 26.1635 29.2996L21.0312 32.2158C22.5127 34.0981 26.7455 34.1246 32.2746 32.5869L32.2482 30.6781Z" fill="url(#paint0_linear_50_226)"/>
<path d="M60.7928 20.1268L57.5653 18.3506L55.7928 17.3697L51.6129 15.0632L45.978 11.9349C51.5071 9.97306 56.0045 9.73446 57.3801 11.6168L62.5653 8.67402C60.8457 5.62524 52.9886 6.63266 43.7822 10.7154L31.6394 4.00806L31.851 13.8967C37.142 12.4916 40.2637 12.3856 40.2637 12.3856C39.523 12.7832 38.7558 13.1809 37.9886 13.6051C35.8457 14.7981 33.8351 16.0441 31.9833 17.3166C31.9568 17.3166 31.9568 17.3432 31.9304 17.3432C23.9145 22.937 19.1526 28.902 20.7928 31.8978C20.8457 32.0038 20.9251 32.1099 21.0309 32.2159L26.1632 29.2997C26.1632 29.2997 26.1632 29.2732 26.1367 29.2732C24.9727 27.1788 27.433 23.4672 31.9833 19.7557L32.0891 24.8193L32.2478 32.534L32.3272 36.6167L32.433 40.9381L65.0785 22.4333L60.7928 20.1268Z" fill="url(#paint1_linear_50_226)"/>
<path d="M62.5655 8.67414L57.3803 11.6169C57.4332 11.6964 57.4861 11.7759 57.539 11.8555C58.2797 13.181 57.5655 15.1429 55.793 17.3698L57.5655 18.3507C61.7189 14.4271 63.7559 10.795 62.5655 8.67414Z" fill="url(#paint2_linear_50_226)"/>
<path fill-rule="evenodd" clip-rule="evenodd" d="M29.7343 49.2361C29.7343 49.5277 29.9195 50.5086 31.0835 50.5086C32.2475 50.5086 32.4327 49.5277 32.4327 49.2361V47.2478C32.4327 46.9561 32.2475 45.9752 31.0835 45.9752C29.9195 45.9752 29.7343 46.9561 29.7343 47.2478V49.2361ZM28.3586 47.3008C28.3586 47.1682 28.3851 46.5585 28.7026 45.9752C29.02 45.4185 29.6814 44.7822 31.0571 44.7822H31.0835C32.4592 44.7822 33.1205 45.4185 33.438 45.9752C33.7819 46.5585 33.7819 47.1682 33.7819 47.3008V49.1831C33.7819 49.3156 33.7555 49.9254 33.438 50.5086C33.1205 51.0654 32.4592 51.7016 31.0835 51.7016H31.0571C29.6814 51.7016 29.02 51.0654 28.7026 50.5086C28.3586 49.9254 28.3586 49.3156 28.3586 49.1831V47.3008ZM27.8295 50.3496C27.8295 50.3231 27.8031 50.27 27.7766 50.27L26.7449 49.7663C26.7184 49.7663 26.7184 49.7663 26.692 49.7663C26.6655 49.7663 26.6126 49.7928 26.6126 49.8193C26.4539 50.164 26.11 50.5351 25.3957 50.5351C24.2317 50.5351 24.0465 49.5542 24.0465 49.2626V47.2743C24.0465 46.9826 24.2317 46.0017 25.3957 46.0017C26.11 46.0017 26.4539 46.3729 26.6126 46.744C26.6391 46.7706 26.6655 46.7971 26.692 46.7971C26.7184 46.7971 26.7184 46.7971 26.7449 46.7971L27.7766 46.2668C27.8031 46.2403 27.8295 46.2138 27.8295 46.1873C27.8295 46.1608 27.8295 46.1608 27.8295 46.1608C27.8031 46.1078 27.8031 46.0813 27.7766 46.0548C27.4592 45.498 26.7978 44.8618 25.4221 44.8618H25.3957C24.02 44.8618 23.3586 45.498 23.0412 46.0548C22.6973 46.638 22.6973 47.2478 22.6973 47.3803V49.2626C22.6973 49.3952 22.7237 50.0049 23.0412 50.5882C23.3586 51.1449 24.02 51.7812 25.3957 51.7812H25.4221C26.7978 51.7812 27.4592 51.1449 27.7766 50.5882C27.8031 50.5351 27.8295 50.5086 27.8295 50.4556C27.8031 50.3761 27.8295 50.3496 27.8295 50.3496ZM39.9989 51.463V45.0208C39.9989 44.9678 39.9459 44.9148 39.893 44.9148H38.729C38.6761 44.9148 38.6232 44.9678 38.6232 45.0208V47.3008V49.2361C38.6232 49.5277 38.438 50.5086 37.274 50.5086C36.11 50.5086 35.9248 49.5277 35.9248 49.2361V45.0208C35.9248 44.9678 35.8719 44.9148 35.819 44.9148H34.6549C34.602 44.9148 34.5491 44.9678 34.5491 44.9943V49.1566C34.5491 49.2891 34.5491 49.8989 34.8666 50.4821C35.1576 51.0389 35.7396 51.6751 36.983 51.6751H37.0094C37.8295 51.6751 38.3586 51.3305 38.7026 50.9858V51.4365C38.7026 51.4895 38.7555 51.5161 38.8084 51.5161H39.893C39.9459 51.5691 39.9989 51.5161 39.9989 51.463Z" fill="#945226"/>
<path fill-rule="evenodd" clip-rule="evenodd" d="M50.9519 49.3686C50.9519 49.6337 50.7667 50.5616 49.6556 50.5616C48.5181 50.5616 48.3593 49.6337 48.3593 49.3686V49.2626C48.3593 48.9974 48.5445 48.0696 49.6556 48.0696C50.7932 48.0696 50.9519 48.9974 50.9519 49.2626V49.3686ZM52.1953 47.2742C52.1953 46.744 51.9308 45.498 50.7403 45.0208C49.5233 44.5171 47.8831 45.1268 47.4863 45.2859C47.4334 45.2859 47.4069 45.3389 47.4069 45.3654C47.4069 45.3919 47.4069 45.3919 47.4069 45.4184L47.7244 46.3463C47.7509 46.3993 47.8038 46.4259 47.8302 46.3993C48.28 46.1607 49.4969 45.7631 50.2376 46.1077C50.9519 46.4259 50.899 47.1947 50.899 47.2742V47.4598C50.4493 47.1417 49.9202 46.9561 49.3646 46.9561H49.3382C48.0948 46.9561 47.5128 47.5393 47.2218 48.0696C46.9308 48.6263 46.9043 49.2095 46.9043 49.3156C46.9043 49.4216 46.9308 50.0049 47.2218 50.5616C47.5128 51.0918 48.0948 51.6751 49.3382 51.6751C50.0524 51.6751 50.5551 51.41 50.899 51.1448V51.463C50.899 51.516 50.9519 51.5425 51.0048 51.5425H52.0366C52.0895 51.5425 52.1159 51.4895 52.1424 51.463V47.9635V47.2742C52.1953 47.3007 52.1953 47.2742 52.1953 47.2742Z" fill="#FFC500"/>
<path fill-rule="evenodd" clip-rule="evenodd" d="M58.4915 47.3272C58.4915 47.1946 58.4915 46.5848 58.174 46.0016C57.883 45.4449 57.301 44.8086 56.0576 44.8086C55.2375 44.8086 54.7084 45.1267 54.3645 45.4714V45.0207C54.3645 44.9677 54.3116 44.9412 54.2851 44.9146H53.2005C53.1475 44.9146 53.1211 44.9677 53.1211 45.0207V51.4629C53.1211 51.5159 53.174 51.5424 53.2269 51.5424H54.3909C54.4438 51.5424 54.4703 51.5159 54.4968 51.4629V47.1681C54.5232 46.8234 54.7613 45.9751 55.846 45.9751C57.01 45.9751 57.1952 46.956 57.1952 47.2476V51.4629C57.1952 51.5159 57.2481 51.5689 57.301 51.5689H58.465C58.5179 51.5689 58.5444 51.5159 58.5444 51.4629L58.4915 47.3272Z" fill="#87CC2E"/>
<path fill-rule="evenodd" clip-rule="evenodd" d="M44.9207 49.236C44.9207 49.5276 44.7355 50.5085 43.5715 50.5085C42.4074 50.5085 42.2223 49.5276 42.2223 49.236V47.2476C42.2223 46.956 42.4074 45.9751 43.5715 45.9751C44.7355 45.9751 44.9207 46.956 44.9207 47.2476V49.236ZM45.9789 46.0016C45.6879 45.4449 45.1059 44.8086 43.8625 44.8086H43.836C43.0159 44.8086 42.4868 45.1532 42.1429 45.4979V45.0472C42.1429 44.9942 42.09 44.9411 42.0371 44.9411H40.9789C40.926 44.9411 40.873 44.9942 40.873 45.0472V53.8224C40.873 53.8754 40.926 53.9019 40.9789 53.9019H42.1693C42.2223 53.9019 42.2487 53.8489 42.2487 53.8224V51.1448C42.5926 51.4629 43.1217 51.728 43.8625 51.7545H43.8889C45.1059 51.7545 45.7143 51.1182 46.0053 50.5615C46.2963 49.9783 46.3228 49.3685 46.3228 49.236V47.3537C46.2963 47.1946 46.2699 46.5848 45.9789 46.0016Z" fill="#F7552F"/>
<path fill-rule="evenodd" clip-rule="evenodd" d="M63.3582 47.2742C63.3582 47.5393 63.173 48.4672 62.009 48.4672C60.8449 48.4672 60.6598 47.5128 60.6598 47.2742V47.1947C60.6598 46.9296 60.8449 46.0017 62.009 46.0017C63.173 46.0017 63.3582 46.9561 63.3582 47.1947V47.2742ZM65.3687 44.8617C64.6809 44.8352 64.2312 45.1268 63.9402 45.445C63.5434 45.1003 62.9349 44.8352 62.0354 44.8352H62.009C60.6333 44.8352 59.9719 45.445 59.6545 45.9752C59.3105 46.5319 59.3105 47.1152 59.3105 47.2212V47.2742C59.3105 47.3803 59.337 47.99 59.6545 48.5203C59.7867 48.7589 59.9984 48.9975 60.3158 49.2095C59.8132 49.5012 59.337 50.0314 59.337 50.9593V51.463C59.337 51.516 59.3899 51.5425 59.4164 51.569H63.5169C63.8873 51.569 64.1783 51.8607 64.1783 52.2318C64.1783 52.6295 63.9137 52.8151 63.4904 52.9741C63.4375 53.0006 63.3846 53.0537 63.4375 53.1332C63.464 53.1862 63.8079 53.8755 63.8344 53.9285C63.8608 53.9815 63.9137 54.0081 63.9931 53.9815C64.8132 53.7429 65.3423 53.0802 65.3423 52.2318C65.3423 51.2509 64.5486 50.4556 63.5698 50.4556H60.6862C60.8449 49.6337 61.7973 49.6602 61.9031 49.6602C61.9561 49.6602 61.9825 49.6602 62.0354 49.6602H62.0619C63.4375 49.6602 64.0989 49.0505 64.4164 48.5203C64.7603 47.9635 64.7603 47.3803 64.7603 47.2742V47.2212C64.7603 47.1152 64.7603 46.691 64.5486 46.2138C64.7338 46.0812 64.9984 45.9752 65.4217 46.0017C65.4746 46.0017 65.501 45.9487 65.5275 45.9222V44.9678C65.4746 44.8882 65.4217 44.8617 65.3687 44.8617Z" fill="#30B5DC"/>
<defs>
<linearGradient id="paint0_linear_50_226" x1="25.5667" y1="29.5845" x2="28.543" y2="34.7287" gradientUnits="userSpaceOnUse">
<stop stop-color="#27C0FF"/>
<stop offset="1" stop-color="#0890FF"/>
</linearGradient>
<linearGradient id="paint1_linear_50_226" x1="32.1349" y1="3.72139" x2="48.5391" y2="32.0742" gradientUnits="userSpaceOnUse">
<stop stop-color="#53D2FF"/>
<stop offset="1" stop-color="#02AFFF"/>
</linearGradient>
<linearGradient id="paint2_linear_50_226" x1="58.1291" y1="11.1933" x2="61.0855" y2="16.3032" gradientUnits="userSpaceOnUse">
<stop stop-color="#23BDFF"/>
<stop offset="1" stop-color="#0890FF"/>
</linearGradient>
</defs>
</svg>
