<svg width="62" height="50" viewBox="0 0 62 50" fill="none" xmlns="http://www.w3.org/2000/svg">
<path d="M8.52518 32.8398C7.59252 33.0157 6.64345 33.0685 5.66168 33.209L2.66715 23.7872V33.6133C1.73449 33.7188 0.883621 33.8594 0 34V16H2.48727L5.89073 26.213V16H8.52518V32.8398ZM13.6796 22.5918C14.6942 22.5918 16.2487 22.5391 17.1813 22.5391V25.3515C16.0195 25.3515 14.6614 25.3515 13.6796 25.4042V29.5879C15.2178 29.4825 16.7559 29.3417 18.3103 29.289V31.9958L11.0614 32.6112V16H18.3103V18.8125H13.6796V22.5918ZM28.0464 18.8126H25.3301V31.75C24.4465 31.75 23.5629 31.75 22.7122 31.7851V18.8126H19.9959V16H28.0465L28.0464 18.8126ZM32.3008 22.3985H35.8844V25.2109H32.3008V31.5919H29.7316V16H37.0462V18.8125H32.3008V22.3985ZM41.3005 29.1309C42.7896 29.1659 44.2949 29.2892 45.7513 29.3769V32.1543C43.4114 31.996 41.0715 31.838 38.6825 31.7851V16H41.3005V29.1309ZM47.9603 32.3477C48.7948 32.4005 49.6785 32.4532 50.5293 32.5585V16H47.9603V32.3477ZM62 16L58.6782 24.5606L62 34C61.0181 33.8594 60.0363 33.666 59.0545 33.4902L57.1728 28.2872L55.2585 33.0685C54.3093 32.8925 53.393 32.8398 52.4441 32.6992L55.8148 24.455L52.7712 16H55.5855L57.3037 20.7285L59.1364 16H62Z" fill="#D81F26"/>
</svg>
