<svg width="62" height="50" viewBox="0 0 62 50" fill="none" xmlns="http://www.w3.org/2000/svg">
<path d="M62 18.4056H57.4283L52.0904 35.695H52.0075L46.6696 18.4056H42.0202L49.6828 39.8595H54.3736L62 18.4056ZM31.2873 13.473V18.3854H28.1964V21.7614H31.2873V34.3861C31.2873 38.3938 32.9648 39.9909 37.2725 39.9909C38.2458 39.9909 39.214 39.91 39.7007 39.7938V36.4178C39.4211 36.4784 38.7118 36.5188 38.2666 36.5188C36.4855 36.5188 35.6778 35.7102 35.6778 33.9161V21.7614H39.7214V18.3854H35.6778V13.473H31.2873ZM10.8468 17.8497C12.0531 18.2894 12.8297 18.5168 13.1663 18.5168C13.42 18.5168 14.2794 18.254 15.7395 17.7335C17.1218 17.2483 18.2868 17.0461 19.2394 17.127C21.823 17.3291 23.7697 18.3248 25.0589 20.1189C22.7446 21.4885 21.6003 23.4039 21.6262 25.8601C21.6469 27.7756 22.3562 29.3676 23.7542 30.631C24.3858 31.2173 25.0951 31.6721 25.8821 31.9956C25.7164 32.4656 25.5352 32.9306 25.3436 33.3753C24.8777 34.4215 24.3289 35.3868 23.692 36.2762C22.8222 37.4841 22.1129 38.3231 21.5641 38.788C20.715 39.5512 19.8038 39.9403 18.8304 39.9656C18.1314 39.9656 17.2875 39.7736 16.3038 39.3743C15.3201 38.9801 14.414 38.788 13.5856 38.788C12.7158 38.788 11.7839 38.9801 10.7898 39.3743C9.79056 39.7685 8.98806 39.9757 8.37194 39.9959C7.43482 40.0364 6.50288 39.632 5.57612 38.788C4.98071 38.2826 4.24033 37.4134 3.34981 36.1903C2.39716 34.8814 1.61019 33.3601 0.994071 31.6267C0.331357 29.7517 0 27.9373 0 26.1836C0 24.1721 0.445261 22.4386 1.33578 20.9882C2.03474 19.8207 2.96668 18.9009 4.13679 18.2237C5.30171 17.5465 6.56501 17.2028 7.9215 17.1826C8.66188 17.1826 9.64042 17.405 10.8468 17.8497ZM17.7328 14.7971C18.8563 13.4983 19.4154 12.0983 19.4154 10.5973C19.4154 10.3952 19.4051 10.1981 19.3792 10.001C18.5974 10.0414 17.769 10.2688 16.894 10.6883C16.0139 11.1128 15.289 11.6435 14.7195 12.2803C13.5805 13.5387 12.9385 15.0802 12.9385 16.5205C12.9385 16.7176 12.954 16.9046 12.9747 17.0866C14.7506 17.2281 16.3815 16.3386 17.7328 14.7971Z" fill="black"/>
</svg>
