<svg width="current" height="current" viewBox="0 0 65 26" fill="none" xmlns="http://www.w3.org/2000/svg">
<path d="M64.9996 12.3411C64.9996 13.5989 64.4905 14.6371 63.4722 15.4557C63.3125 15.6155 63.033 15.905 62.6337 16.3242C63.2327 17.043 63.5321 17.9015 63.5321 18.8998C63.5321 19.4189 63.4423 19.918 63.2626 20.3972C63.4423 20.8764 63.5321 21.3755 63.5321 21.8946C63.5321 23.0327 63.1528 23.981 62.3941 24.7397C61.6554 25.4984 60.717 25.8778 59.579 25.8778H56.9136C54.2182 25.8778 51.9421 24.9494 50.0853 23.0926C48.2485 21.2557 47.3301 18.9797 47.3301 16.2643C47.3301 15.7652 47.37 15.2661 47.4499 14.7669C47.37 14.2678 47.3301 13.7686 47.3301 13.2695C47.3301 10.5542 48.2485 8.27811 50.0853 6.44128C51.9222 4.60445 54.1982 3.68604 56.9136 3.68604C58.6905 3.68604 60.4175 4.17519 62.0946 5.1535C64.0313 6.27157 64.9996 7.66916 64.9996 9.34627C64.9996 9.88534 64.8998 10.3845 64.7001 10.8437C64.8998 11.3229 64.9996 11.822 64.9996 12.3411ZM63.053 9.34627C63.053 8.84713 62.8533 8.38793 62.454 7.96865C60.9366 6.41133 59.0898 5.63268 56.9136 5.63268C54.7373 5.63268 52.9204 6.36142 51.4629 7.8189C50.0055 9.27639 49.2767 11.0933 49.2767 13.2695C49.2767 15.4458 50.0055 17.2726 51.4629 18.7501C52.9204 20.2075 54.7373 20.9363 56.9136 20.9363H59.579C60.1779 20.9363 60.6571 20.7466 61.0165 20.3673C61.3958 19.9879 61.5855 19.4988 61.5855 18.8998C61.5855 18.3008 61.3958 17.8217 61.0165 17.4623C60.6571 17.0829 60.1779 16.8933 59.579 16.8933H56.9136C55.9153 16.8933 55.0667 16.5439 54.3679 15.8451C53.6691 15.1263 53.3197 14.2678 53.3197 13.2695C53.3197 12.2712 53.6691 11.4227 54.3679 10.7239C55.0667 10.0251 55.9153 9.6757 56.9136 9.6757C57.1731 9.6757 57.4327 9.69567 57.6922 9.7356L55.5359 11.8619C55.0967 12.3012 54.8771 12.7704 54.8771 13.2695C54.8771 13.8285 55.0767 14.3177 55.476 14.737C55.8953 15.1562 56.3845 15.3659 56.9435 15.3659C57.4426 15.3659 57.9118 15.1562 58.3511 14.737L62.1845 10.9934C62.7635 10.5542 63.053 10.0051 63.053 9.34627Z" fill="#501EE0"/>
<path d="M49.1448 17.4023C49.1448 19.7582 48.3362 21.7448 46.719 23.362C45.1017 24.9992 43.1152 25.8178 40.7592 25.8178C38.3833 25.8178 36.3868 25.0091 34.7696 23.3919C33.1524 21.7747 32.3438 19.7782 32.3438 17.4023V4.1052C32.3438 2.96716 32.7131 2.0188 33.4518 1.26011C34.2105 0.501416 35.1589 0.12207 36.2969 0.12207C37.3551 0.12207 38.2536 0.461485 38.9923 1.14031C39.751 1.81914 40.1802 2.68764 40.2801 3.74582H45.1916C46.3296 3.74582 47.268 4.12517 48.0067 4.88386C48.7654 5.62258 49.1448 6.56096 49.1448 7.699C49.1448 8.25804 49.0649 8.77714 48.9052 9.25632C49.0649 9.71552 49.1448 10.1947 49.1448 10.6938C49.1448 11.3527 49.035 11.9517 48.8153 12.4907C49.035 13.0098 49.1448 13.5589 49.1448 14.1379V14.4074C49.1448 14.9665 49.0949 15.5055 48.995 16.0246C49.0949 16.384 49.1448 16.7534 49.1448 17.1327V17.4023ZM47.1981 14.4074V14.1379C47.1981 13.5589 47.0085 13.0797 46.6291 12.7004C46.2498 12.321 45.7706 12.1314 45.1916 12.1314C44.6126 12.1314 44.1234 12.321 43.7241 12.7004C43.3448 13.0797 43.1551 13.5589 43.1551 14.1379V14.4074C43.1551 15.0863 42.9255 15.6653 42.4663 16.1444C42.0071 16.6036 41.4381 16.8332 40.7592 16.8332C40.0804 16.8332 39.5014 16.6036 39.0222 16.1444C38.563 15.6653 38.3334 15.0863 38.3334 14.4074V9.73549H45.1916C46.5293 9.73549 47.1981 9.05666 47.1981 7.699C47.1981 7.10003 47.0085 6.62086 46.6291 6.26148C46.2697 5.88213 45.7906 5.69246 45.1916 5.69246H38.3334V4.1052C38.3334 3.50623 38.1437 3.01708 37.7644 2.63773C37.3851 2.25839 36.8959 2.06871 36.2969 2.06871C35.698 2.06871 35.2088 2.25839 34.8295 2.63773C34.4701 3.01708 34.2904 3.50623 34.2904 4.1052V14.4074C34.2904 16.2642 34.8993 17.8116 36.1172 19.0494C37.3551 20.2673 38.9024 20.8763 40.7592 20.8763C42.5961 20.8763 44.1234 20.2573 45.3413 19.0195C46.5792 17.7816 47.1981 16.2443 47.1981 14.4074ZM41.1486 14.677H40.34C40.4398 14.8167 40.5795 14.8866 40.7592 14.8866C40.9389 14.8866 41.0687 14.8167 41.1486 14.677Z" fill="#501EE0"/>
<path d="M34.1565 17.4023C34.1565 19.7582 33.3479 21.7448 31.7307 23.362C30.1135 24.9992 28.1269 25.8178 25.771 25.8178C23.3951 25.8178 21.3985 25.0091 19.7813 23.3919C18.1641 21.7747 17.3555 19.7782 17.3555 17.4023V4.1052C17.3555 2.96716 17.7248 2.0188 18.4636 1.26011C19.2222 0.501416 20.1706 0.12207 21.3086 0.12207C22.3668 0.12207 23.2653 0.461485 24.004 1.14031C24.7627 1.81914 25.192 2.68764 25.2918 3.74582H30.2033C31.3413 3.74582 32.2797 4.12517 33.0185 4.88386C33.7771 5.62258 34.1565 6.56096 34.1565 7.699C34.1565 8.25804 34.0766 8.77714 33.9169 9.25632C34.0766 9.71552 34.1565 10.1947 34.1565 10.6938C34.1565 11.3527 34.0467 11.9517 33.8271 12.4907C34.0467 13.0098 34.1565 13.5589 34.1565 14.1379V14.4074C34.1565 14.9665 34.1066 15.5055 34.0068 16.0246C34.1066 16.384 34.1565 16.7534 34.1565 17.1327V17.4023ZM32.2098 14.4074V14.1379C32.2098 13.5589 32.0202 13.0797 31.6408 12.7004C31.2615 12.321 30.7823 12.1314 30.2033 12.1314C29.6243 12.1314 29.1352 12.321 28.7358 12.7004C28.3565 13.0797 28.1668 13.5589 28.1668 14.1379V14.4074C28.1668 15.0863 27.9372 15.6653 27.478 16.1444C27.0188 16.6036 26.4498 16.8332 25.771 16.8332C25.0921 16.8332 24.5131 16.6036 24.034 16.1444C23.5747 15.6653 23.3451 15.0863 23.3451 14.4074V9.73549H30.2033C31.541 9.73549 32.2098 9.05666 32.2098 7.699C32.2098 7.10003 32.0202 6.62086 31.6408 6.26148C31.2815 5.88213 30.8023 5.69246 30.2033 5.69246H23.3451V4.1052C23.3451 3.50623 23.1555 3.01708 22.7761 2.63773C22.3968 2.25839 21.9076 2.06871 21.3086 2.06871C20.7097 2.06871 20.2205 2.25839 19.8412 2.63773C19.4818 3.01708 19.3021 3.50623 19.3021 4.1052V14.4074C19.3021 16.2642 19.9111 17.8116 21.129 19.0494C22.3668 20.2673 23.9142 20.8763 25.771 20.8763C27.6078 20.8763 29.1352 20.2573 30.3531 19.0195C31.5909 17.7816 32.2098 16.2443 32.2098 14.4074ZM26.1603 14.677H25.3517C25.4515 14.8167 25.5913 14.8866 25.771 14.8866C25.9506 14.8866 26.0804 14.8167 26.1603 14.677Z" fill="#501EE0"/>
<path d="M19.1969 16.2643C19.1969 18.9597 18.2685 21.2358 16.4117 23.0926C14.5549 24.9494 12.2788 25.8778 9.58347 25.8778C6.86815 25.8778 4.59208 24.9494 2.75525 23.0926C0.918416 21.2557 0 18.9797 0 16.2643C0 15.7652 0.0399311 15.2661 0.119793 14.7669C0.0399311 14.2678 0 13.7686 0 13.2695C0 10.5542 0.918416 8.27811 2.75525 6.44128C4.59208 4.60445 6.86815 3.68604 9.58347 3.68604C12.2988 3.68604 14.5749 4.60445 16.4117 6.44128C18.2685 8.27811 19.1969 10.5542 19.1969 13.2695C19.1969 13.7886 19.157 14.2977 19.0771 14.7969C19.157 15.276 19.1969 15.7652 19.1969 16.2643ZM17.2502 13.2695C17.2502 11.0933 16.5115 9.27639 15.0341 7.8189C13.5766 6.36142 11.7597 5.63268 9.58347 5.63268C7.40722 5.63268 5.59036 6.36142 4.13287 7.8189C2.67539 9.27639 1.94664 11.0933 1.94664 13.2695C1.94664 15.4458 2.67539 17.2726 4.13287 18.7501C5.59036 20.2075 7.40722 20.9363 9.58347 20.9363C11.7597 20.9363 13.5766 20.2075 15.0341 18.7501C16.5115 17.2726 17.2502 15.4458 17.2502 13.2695ZM13.2072 13.2695C13.2072 14.2678 12.8478 15.1263 12.1291 15.8451C11.4303 16.5439 10.5817 16.8933 9.58347 16.8933C8.58519 16.8933 7.73666 16.5439 7.03786 15.8451C6.33907 15.1263 5.98967 14.2678 5.98967 13.2695C5.98967 12.2712 6.33907 11.4227 7.03786 10.7239C7.73666 10.0251 8.58519 9.6757 9.58347 9.6757C10.5817 9.6757 11.4303 10.0251 12.1291 10.7239C12.8478 11.4227 13.2072 12.2712 13.2072 13.2695Z" fill="#501EE0"/>
</svg>
